<svg width="283" height="112" viewBox="0 0 283 112" fill="none" xmlns="http://www.w3.org/2000/svg">
<path d="M0.0500003 90.7V74.2L49.1 4H73.55V72.4H86.75V90.7H73.55V112H52.55V90.7H0.0500003ZM53.9 26.5L23.15 72.4H53.9V26.5ZM100.12 55.9C100.12 38.6 103.22 25.05 109.42 15.25C115.72 5.44999 126.12 0.549995 140.62 0.549995C155.12 0.549995 165.47 5.44999 171.67 15.25C177.97 25.05 181.12 38.6 181.12 55.9C181.12 73.3 177.97 86.95 171.67 96.85C165.47 106.75 155.12 111.7 140.62 111.7C126.12 111.7 115.72 106.75 109.42 96.85C103.22 86.95 100.12 73.3 100.12 55.9ZM160.42 55.9C160.42 48.5 159.92 42.3 158.92 37.3C158.02 32.2 156.12 28.05 153.22 24.85C150.42 21.65 146.22 20.05 140.62 20.05C135.02 20.05 130.77 21.65 127.87 24.85C125.07 28.05 123.17 32.2 122.17 37.3C121.27 42.3 120.82 48.5 120.82 55.9C120.82 63.5 121.27 69.9 122.17 75.1C123.07 80.2 124.97 84.35 127.87 87.55C130.77 90.65 135.02 92.2 140.62 92.2C146.22 92.2 150.47 90.65 153.37 87.55C156.27 84.35 158.17 80.2 159.07 75.1C159.97 69.9 160.42 63.5 160.42 55.9ZM196.193 90.7V74.2L245.243 4H269.693V72.4H282.893V90.7H269.693V112H248.693V90.7H196.193ZM250.043 26.5L219.293 72.4H250.043V26.5Z" fill="#DCC48C" fill-opacity="0.4"/>
</svg>
