<svg width="65" height="62" viewBox="0 0 65 62" fill="none" xmlns="http://www.w3.org/2000/svg">
<path fill-rule="evenodd" clip-rule="evenodd" d="M12.9694 38.3407C12.2879 31.8263 10.1177 26.0976 8.1099 19.9636C7.71761 18.7658 6.43167 18.1152 5.23686 18.5048C4.04134 18.8947 3.39097 20.1854 3.78254 21.3835C5.68661 27.1999 7.79255 32.629 8.44111 38.8165C8.57202 40.0681 9.69436 40.9791 10.943 40.8444C12.1934 40.7171 13.101 39.592 12.9694 38.3407Z" fill="#DCC48C"/>
<path fill-rule="evenodd" clip-rule="evenodd" d="M29.6478 45.4387C36.3493 32.7185 40.6899 21.7215 43.0003 7.5C43.2012 6.25809 42.7402 3.69925 41.5005 3.5C40.2608 3.30075 39.2012 5.2581 39.0003 6.5C36.7656 20.2506 32.1005 31.0208 25.6184 43.3151C25.0335 44.429 25.4611 45.8078 26.5723 46.392C27.6835 46.9763 29.0629 46.5526 29.6478 45.4387Z" fill="#DCC48C"/>
<path fill-rule="evenodd" clip-rule="evenodd" d="M35.764 54.4988C45.4391 52.7196 53.9275 46.7615 60.924 40.1383C61.8352 39.2699 61.8746 37.8281 61.0131 36.92C60.1483 36.0051 58.7061 35.9674 57.7923 36.8286C51.4216 42.8637 43.7519 48.3982 34.9405 50.0199C33.7042 50.247 32.886 51.4367 33.1127 52.6699C33.3388 53.9034 34.5284 54.7256 35.764 54.4988Z" fill="#DCC48C"/>
</svg>
