<svg width="71" height="46" viewBox="0 0 71 46" fill="none" xmlns="http://www.w3.org/2000/svg">
<circle cx="3.5" cy="2" r="2" fill="white"/>
<circle cx="19.5" cy="2" r="2" fill="white"/>
<circle cx="35.5" cy="2" r="2" fill="white"/>
<circle cx="51.5" cy="2" r="2" fill="white"/>
<circle cx="67.5" cy="2" r="2" fill="white"/>
<circle cx="3.5" cy="8" r="2" fill="white"/>
<circle cx="19.5" cy="8" r="2" fill="white"/>
<circle cx="35.5" cy="8" r="2" fill="white"/>
<circle cx="51.5" cy="8" r="2" fill="white"/>
<circle cx="67.5" cy="8" r="2" fill="white"/>
<circle cx="3.5" cy="14" r="2" fill="white"/>
<circle cx="19.5" cy="14" r="2" fill="white"/>
<circle cx="35.5" cy="14" r="2" fill="white"/>
<circle cx="51.5" cy="14" r="2" fill="white"/>
<circle cx="67.5" cy="14" r="2" fill="white"/>
<circle cx="3.5" cy="20" r="2" fill="white"/>
<circle cx="19.5" cy="20" r="2" fill="white"/>
<circle cx="35.5" cy="20" r="2" fill="white"/>
<circle cx="51.5" cy="20" r="2" fill="white"/>
<circle cx="67.5" cy="20" r="2" fill="white"/>
<circle cx="3.5" cy="26" r="2" fill="white"/>
<circle cx="19.5" cy="26" r="2" fill="white"/>
<circle cx="35.5" cy="26" r="2" fill="white"/>
<circle cx="51.5" cy="26" r="2" fill="white"/>
<circle cx="67.5" cy="26" r="2" fill="white"/>
<circle cx="3.5" cy="32" r="2" fill="white"/>
<circle cx="19.5" cy="32" r="2" fill="white"/>
<circle cx="35.5" cy="32" r="2" fill="white"/>
<circle cx="51.5" cy="32" r="2" fill="white"/>
<circle cx="67.5" cy="32" r="2" fill="white"/>
<circle cx="3.5" cy="38" r="2" fill="white"/>
<circle cx="19.5" cy="38" r="2" fill="white"/>
<circle cx="35.5" cy="38" r="2" fill="white"/>
<circle cx="51.5" cy="38" r="2" fill="white"/>
<circle cx="67.5" cy="38" r="2" fill="white"/>
<circle cx="3.5" cy="44" r="2" fill="white"/>
<circle cx="19.5" cy="44" r="2" fill="white"/>
<circle cx="35.5" cy="44" r="2" fill="white"/>
<circle cx="51.5" cy="44" r="2" fill="white"/>
<circle cx="67.5" cy="44" r="2" fill="white"/>
</svg>
