<svg width="25" height="25" viewBox="0 0 25 25" fill="#fff" xmlns="http://www.w3.org/2000/svg">
<path d="M22.0465 6.71705C22.9251 5.83838 22.6877 4.17634 21.5161 3.00478C20.3446 1.83322 18.6825 1.59578 17.8039 2.47445C16.9252 3.35313 17.1626 5.01517 18.3342 6.18673C19.5058 7.35829 21.1678 7.59573 22.0465 6.71705Z" stroke="#F2F2F2" stroke-width="1.5" stroke-miterlimit="10" stroke-linecap="round" stroke-linejoin="round"/>
<path d="M7.17527 21.5457C6.35027 22.4457 4.62527 22.2207 3.50027 21.0207C2.37527 19.8207 2.07527 18.1707 2.97527 17.3457" stroke="#F2F2F2" stroke-width="1.5" stroke-miterlimit="10" stroke-linecap="round" stroke-linejoin="round"/>
<path d="M2.97559 17.3461C8.22559 12.7711 13.2506 7.74609 17.8256 2.49609" stroke="#F2F2F2" stroke-width="1.5" stroke-miterlimit="10" stroke-linecap="round" stroke-linejoin="round"/>
<path d="M7.17578 21.5463C11.7508 16.2963 16.7758 11.2713 22.0258 6.69629" stroke="#F2F2F2" stroke-width="1.5" stroke-miterlimit="10" stroke-linecap="round" stroke-linejoin="round"/>
<path d="M10.4014 9.9209C11.4514 11.6459 14.7514 14.2709 14.7514 14.2709" stroke="#F2F2F2" stroke-width="1.5" stroke-miterlimit="10" stroke-linecap="round" stroke-linejoin="round"/>
<path d="M14.001 18.7715V13.5215C15.876 14.4215 16.251 16.2965 16.251 18.3965V21.7715" stroke="#F2F2F2" stroke-width="1.5" stroke-miterlimit="10" stroke-linecap="round" stroke-linejoin="round"/>
</svg>
