<svg width="111" height="111" viewBox="0 0 111 111" fill="none" xmlns="http://www.w3.org/2000/svg">
<mask id="mask0_1_8569" style="mask-type:luminance" maskUnits="userSpaceOnUse" x="0" y="0" width="111" height="111">
<path d="M0 0H111V111H0V0Z" fill="white"/>
</mask>
<g mask="url(#mask0_1_8569)">
<path fill-rule="evenodd" clip-rule="evenodd" d="M86.1013 43.9144C90.2391 44.939 93.9146 47.3199 96.5413 50.6772C99.168 54.0344 100.595 58.1747 100.594 62.4375V64.1719C100.594 69.2317 98.5837 74.0843 95.0059 77.6621C91.4281 81.24 86.5755 83.25 81.5156 83.25H79.7812C74.8321 83.2545 70.0753 81.3334 66.5173 77.8932C62.9593 74.453 60.8791 69.7636 60.717 64.8171V64.7962H60.7031V62.4375C60.7031 61.5264 60.7656 60.6338 60.8904 59.7596C61.0292 57.9466 61.2373 56.166 61.5148 54.4177C62.2464 49.8378 63.5493 45.3675 65.3929 41.1116C68.6983 33.4875 73.8536 26.8085 80.3918 21.6797L81.0716 21.1524C81.359 20.9338 81.7096 20.8145 82.0706 20.8125C83.361 20.8125 84.1935 22.2139 83.5969 23.3586C83.0753 24.3533 82.5666 25.3547 82.0706 26.3625C81.0127 28.5324 80.0179 30.7325 79.0875 32.9601C77.5823 36.5289 76.2919 40.1845 75.2233 43.9074L75.5979 43.8172C76.9717 43.5136 78.3743 43.3601 79.7812 43.3594H81.5156C83.102 43.364 84.6306 43.549 86.1013 43.9144ZM89.91 34.1672C96.0028 35.9767 101.348 39.7067 105.148 44.8011C108.949 49.8955 111.001 56.0816 111 62.4375V64.1719C111 71.9916 107.894 79.4911 102.364 85.0205C96.8348 90.5499 89.3354 93.6562 81.5156 93.6562H79.7812C75.0037 93.6571 70.2975 92.497 66.0678 90.2757C61.838 88.0545 58.2114 84.8387 55.5 80.9051C52.7886 84.8387 49.162 88.0545 44.9322 90.2757C40.7024 92.497 35.9963 93.6571 31.2188 93.6562H29.4844C21.7669 93.6578 14.3565 90.6335 8.84391 85.2325C3.33135 79.8315 0.156165 72.4844 0 64.7685L0 62.4375C0 61.1656 0.0809375 59.9099 0.242812 58.6704C1.67887 40.4942 9.66394 24.2188 24.4408 12.8899C26.5461 11.2793 29.123 10.4066 31.7738 10.4063C41.0769 10.4062 46.6616 20.2922 42.513 28.194C41.7429 29.6578 40.7093 31.7182 39.6131 34.1602C45.0799 35.7836 49.8876 38.9471 53.5228 43.1582C57.2802 31.1108 64.6949 20.5319 74.7377 12.8899C76.843 11.2793 79.4199 10.4066 82.0706 10.4063C91.3738 10.4062 96.9585 20.2922 92.8099 28.194C92.0398 29.6578 91.0061 31.7182 89.91 34.1602M35.7975 43.9144C34.2965 43.5476 32.757 43.3613 31.2118 43.3594H29.4774C27.9418 43.3613 26.4118 43.5452 24.9195 43.9074C26.1839 39.4884 27.7603 35.1648 29.637 30.969C30.7718 28.3916 31.9935 25.8533 33.3 23.3586C33.4397 23.0947 33.509 22.7993 33.5011 22.5009C33.4931 22.2025 33.4083 21.9112 33.2549 21.6551C33.1014 21.3991 32.8844 21.187 32.6249 21.0394C32.3655 20.8918 32.0723 20.8136 31.7738 20.8125C31.4127 20.8145 31.0621 20.9338 30.7747 21.1524C28.474 22.9321 26.3167 24.8899 24.3229 27.0077C20.2279 31.4092 16.9611 36.5138 14.6797 42.0759C13.0554 46.0427 11.896 50.1842 11.2249 54.4177C10.9381 56.166 10.7277 57.9466 10.5936 59.7596C10.4736 60.6473 10.411 61.5418 10.4062 62.4375V64.7893H10.4132V64.8171C10.5754 69.7648 12.6565 74.4552 16.216 77.8956C19.7755 81.336 24.534 83.2563 29.4844 83.25H31.2257C36.2855 83.25 41.1381 81.24 44.716 77.6621C48.2938 74.0843 50.3038 69.2317 50.3038 64.1719V62.4375C50.3038 53.4881 44.1294 45.9679 35.8114 43.9144" fill="#DCC48C"/>
</g>
</svg>
