<svg width="18" height="22" viewBox="0 0 18 22" fill="none" xmlns="http://www.w3.org/2000/svg">
<path d="M6.29419 13C4.92019 13 4.23219 13 3.65719 12.764C3.01643 12.497 2.47446 12.0374 2.10619 11.449C1.76319 10.906 1.61219 10.195 1.31019 8.774C1.05219 7.558 0.923192 6.951 1.04819 6.469C1.11281 6.21157 1.22853 5.96976 1.38847 5.75795C1.5484 5.54613 1.74929 5.36863 1.97919 5.236C2.39519 5 2.98319 5 4.15919 5H13.8422C15.0172 5 15.6052 5 16.0212 5.236C16.4782 5.494 16.8142 5.94 16.9512 6.469C17.0772 6.951 16.9482 7.559 16.6912 8.774C16.3882 10.195 16.2372 10.906 15.8942 11.449C15.5264 12.0379 14.9843 12.4975 14.3432 12.764C13.7682 13 13.0802 13 11.7062 13M3.00019 5L3.51519 2.94C3.65355 2.38572 3.97333 1.89365 4.42364 1.5421C4.87395 1.19055 5.42891 0.99973 6.00019 1M15.0002 5L14.4852 2.94C14.3468 2.38572 14.0271 1.89365 13.5767 1.5421C13.1264 1.19055 12.5715 0.99973 12.0002 1" stroke="white" stroke-width="1.5" stroke-linecap="round" stroke-linejoin="round"/>
<path d="M6.28417 11L7.06017 16.573C7.10517 16.895 7.12817 17.057 7.08317 17.183C6.87717 17.765 6.08817 17.387 5.66117 17.563C5.52947 17.6175 5.41259 17.7025 5.32017 17.811C5.20817 17.941 5.13917 18.119 5.00017 18.476C4.73917 19.15 4.15017 20.099 4.78317 20.738C5.04317 21 5.50317 21 6.42317 21H11.5762C12.4972 21 12.9582 21 13.2172 20.738C13.8502 20.098 13.2612 19.15 13.0002 18.476C12.8612 18.119 12.7922 17.941 12.6802 17.811C12.588 17.7026 12.4715 17.6176 12.3402 17.563C11.9122 17.387 11.1232 17.765 10.9172 17.183C10.8722 17.057 10.8952 16.895 10.9402 16.573L11.7162 11" stroke="white" stroke-width="1.5" stroke-linecap="round" stroke-linejoin="round"/>
</svg>
